<mxfile host="app.diagrams.net" modified="2023-08-08T07:29:11.800Z" agent="Mozilla/5.0 (Macintosh; Intel Mac OS X 10_15_7) AppleWebKit/537.36 (KHTML, like Gecko) Chrome/115.0.0.0 Safari/537.36" version="21.3.8" etag="0HH7twV4WR2XO8qxORFp" type="github">
  <diagram name="第 1 页" id="UjrDGJb6GLwwxh33tclp">
    <mxGraphModel>
      <root>
        <mxCell id="0" />
        <mxCell id="1" parent="0" />
      </root>
    </mxGraphModel>
  </diagram>
</mxfile>
